<svg enable-background="new 0 0 446.8 76.1" viewBox="0 0 446.8 76.1" xmlns="http://www.w3.org/2000/svg"><g fill="#494949"><path d="m277.3 25.4h-8.9v40.8h8.9v-28.2l13.2-4.5v-8.1c-13.2 4.4 0 0-13.2 4.4z"/><path d="m325.7 25.8-18 19.7v-35.2h-8.8v56.3h8.8v-9.2l6.4-6.9 11.8 16.1h10.3l-16.4-22.3 16.9-18.5z"/><path d="m391.5 10.3h8.9v56.3h-8.9z"/><path d="m373.2 25.8h8.9v40.8h-8.9z"/><path d="m377.6 10.3c-3 0-5.5 2.5-5.5 5.5s2.5 5.5 5.5 5.5c.5 0 .9-.2 1.3-.3l3.9-3.9c.1-.4.3-.9.3-1.3 0-3.1-2.4-5.5-5.5-5.5z"/><path d="m446.8 46.2c0-11.3-8.5-20.4-19.1-20.4-10.5 0-19.1 9.1-19.1 20.4s8.5 20.4 19.1 20.4c7.3 0 13.6-4.5 16.8-11h-9.5c-2 1.7-4.5 2.8-7.2 2.8-5.4 0-9.9-4-11.1-9.3h29.9c.1-1 .2-1.9.2-2.9zm-29.9-3.7c1.5-5 5.7-8.6 10.9-8.6 5.1 0 9.4 3.6 10.9 8.6z"/><path d="m353.9 51.7v-18.2h9.8v-7.7h-9.8v-3.6-7.5h-8.9v7.5 32.6c0 6.5 5.3 11.9 11.9 11.9h7.3v-8.9h-5.2c-2.4-.1-5.1-3.1-5.1-6.1z"/><path d="m210.4 9.9-11.7 40.9-11.7-40.8v-.1h-.1-8.8v.1l-11.7 40.6-11.7-40.7h-8.8l16.1 56.1v.2h8.8.1v-.2l11.6-40.6 11.7 40.8h.1 8.8l16.2-56.3z"/></g><g clip-rule="evenodd" fill="#22d7bb" fill-rule="evenodd"><path d="m0 0h34.3v34.3h-34.3z"/><path d="m0 41.8h34.3v34.3h-34.3z"/><path d="m41.8 41.8h34.3v34.3h-34.3z"/><path d="m41.8 0v34.3h41.8v41.8h34.3v-76.1z"/></g><path d="m239.7 25.4c-11.3 0-20.4 9.1-20.4 20.4s9.1 20.4 20.4 20.4c2.4 0 4.7-.5 6.9-1.3l12.2-12.2c.8-2.2 1.3-4.5 1.3-6.9 0-11.3-9.2-20.4-20.4-20.4zm11.6 22.8-9.2 9.2c-.8.2-1.6.3-2.4.3-6.6 0-11.9-5.3-11.9-11.9s5.3-11.9 11.9-11.9 11.9 5.3 11.9 11.9c0 .8-.1 1.6-.3 2.4z" fill="#494949"/></svg>